{
  "accessors": [
    {
      "bufferView": 2,
      "componentType": 5126,
      "count": 2952,
      "max": [
        32.599998474121094,
        183.10000610351562,
        134.89999389648438
      ],
      "min": [
        -28.5,
        0.80000001192092896,
        -187.39999389648438
      ],
      "type": "VEC3"
    },
    {
      "bufferView": 2,
      "byteOffset": 35424,
      "componentType": 5126,
      "count": 2952,
      "max": [
        0.99973243474960327,
        0.9905434250831604,
        0.98616576194763184
      ],
      "min": [
        -0.99979293346405029,
        -0.99855339527130127,
        -0.99976348876953125
      ],
      "type": "VEC3"
    },
    {
      "bufferView": 3,
      "componentType": 5126,
      "count": 2952,
      "max": [
        0.5215686559677124,
        0.28235295414924622,
        0.14509804546833038,
        1
      ],
      "min": [
        0.039215687662363052,
        0.0078431377187371254,
        0.0078431377187371254,
        1
      ],
      "type": "VEC4"
    },
    {
      "bufferView": 1,
      "componentType": 5126,
      "count": 2952,
      "max": [
        0.98235201835632324,
        0.99493002891540527
      ],
      "min": [
        0.0027099999133497477,
        0.0077880024909973145
      ],
      "type": "VEC2"
    },
    {
      "bufferView": 2,
      "byteOffset": 70848,
      "componentType": 5126,
      "count": 2952,
      "max": [
        0,
        0,
        0
      ],
      "min": [
        0,
        0,
        0
      ],
      "type": "VEC3"
    },
    {
      "bufferView": 2,
      "byteOffset": 106272,
      "componentType": 5126,
      "count": 2952,
      "max": [
        1.1503696441650391e-05,
        8.2850456237792969e-06,
        5.1856040954589844e-06
      ],
      "min": [
        -1.169741153717041e-05,
        -9.5367431640625e-06,
        -4.8279762268066406e-06
      ],
      "type": "VEC3"
    },
    {
      "bufferView": 2,
      "byteOffset": 141696,
      "componentType": 5126,
      "count": 2952,
      "max": [
        4.3999996185302734,
        18.200000762939453,
        1.1999969482421875
      ],
      "min": [
        -2,
        -9.5,
        -33.200004577636719
      ],
      "type": "VEC3"
    },
    {
      "bufferView": 2,
      "byteOffset": 177120,
      "componentType": 5126,
      "count": 2952,
      "max": [
        0.41728052496910095,
        0.73340332508087158,
        0.6420900821685791
      ],
      "min": [
        -0.24245044589042664,
        -0.73079419136047363,
        -0.71771901845932007
      ],
      "type": "VEC3"
    },
    {
      "bufferView": 2,
      "byteOffset": 212544,
      "componentType": 5126,
      "count": 2952,
      "max": [
        9.5,
        38.700000762939453,
        13
      ],
      "min": [
        -4.4000000953674316,
        -25.400001525878906,
        -72.900001525878906
      ],
      "type": "VEC3"
    },
    {
      "bufferView": 2,
      "byteOffset": 247968,
      "componentType": 5126,
      "count": 2952,
      "max": [
        0.51734650135040283,
        1.2811794281005859,
        0.66439676284790039
      ],
      "min": [
        -0.37063387036323547,
        -1.3315916061401367,
        -1.0617612600326538
      ],
      "type": "VEC3"
    },
    {
      "bufferView": 2,
      "byteOffset": 283392,
      "componentType": 5126,
      "count": 2952,
      "max": [
        14.300000190734863,
        54.800003051757812,
        44.29998779296875
      ],
      "min": [
        -6.8000001907348633,
        -32.700000762939453,
        -90.900001525878906
      ],
      "type": "VEC3"
    },
    {
      "bufferView": 2,
      "byteOffset": 318816,
      "componentType": 5126,
      "count": 2952,
      "max": [
        0.51472407579421997,
        1.4043500423431396,
        0.83602046966552734
      ],
      "min": [
        -0.40935206413269043,
        -1.5005066394805908,
        -1.2556291818618774
      ],
      "type": "VEC3"
    },
    {
      "bufferView": 2,
      "byteOffset": 354240,
      "componentType": 5126,
      "count": 2952,
      "max": [
        15.700000762939453,
        50.900001525878906,
        84.099990844726562
      ],
      "min": [
        -6.8000001907348633,
        -28.899999618530273,
        -107.09999084472656
      ],
      "type": "VEC3"
    },
    {
      "bufferView": 2,
      "byteOffset": 389664,
      "componentType": 5126,
      "count": 2952,
      "max": [
        0.77897721529006958,
        1.5213896036148071,
        1.0535366535186768
      ],
      "min": [
        -0.47228544950485229,
        -1.6153949499130249,
        -1.3957748413085938
      ],
      "type": "VEC3"
    },
    {
      "bufferView": 2,
      "byteOffset": 425088,
      "componentType": 5126,
      "count": 2952,
      "max": [
        16.100000381469727,
        58.100002288818359,
        124.89999389648438
      ],
      "min": [
        -7.3999996185302734,
        -24.5,
        -122.89999389648438
      ],
      "type": "VEC3"
    },
    {
      "bufferView": 2,
      "byteOffset": 460512,
      "componentType": 5126,
      "count": 2952,
      "max": [
        1.2179614305496216,
        1.6173194646835327,
        1.2874200344085693
      ],
      "min": [
        -0.5509064793586731,
        -1.6559507846832275,
        -1.338300347328186
      ],
      "type": "VEC3"
    },
    {
      "bufferView": 2,
      "byteOffset": 495936,
      "componentType": 5126,
      "count": 2952,
      "max": [
        16.799999237060547,
        60.100002288818359,
        162.39999389648438
      ],
      "min": [
        -7.2000007629394531,
        -15.80000114440918,
        -146
      ],
      "type": "VEC3"
    },
    {
      "bufferView": 2,
      "byteOffset": 531360,
      "componentType": 5126,
      "count": 2952,
      "max": [
        1.5604708194732666,
        1.7356277704238892,
        1.3962531089782715
      ],
      "min": [
        -0.7873687744140625,
        -1.7320020198822021,
        -1.3217524290084839
      ],
      "type": "VEC3"
    },
    {
      "bufferView": 2,
      "byteOffset": 566784,
      "componentType": 5126,
      "count": 2952,
      "max": [
        17.600000381469727,
        57.100002288818359,
        185.5
      ],
      "min": [
        -7.3000001907348633,
        -10.800003051757812,
        -161.39999389648438
      ],
      "type": "VEC3"
    },
    {
      "bufferView": 2,
      "byteOffset": 602208,
      "componentType": 5126,
      "count": 2952,
      "max": [
        1.7056092023849487,
        1.8124262094497681,
        1.3899271488189697
      ],
      "min": [
        -1.0982112884521484,
        -1.8860471248626709,
        -1.1563565731048584
      ],
      "type": "VEC3"
    },
    {
      "bufferView": 2,
      "byteOffset": 637632,
      "componentType": 5126,
      "count": 2952,
      "max": [
        20.299999237060547,
        54.400001525878906,
        199.69999694824219
      ],
      "min": [
        -7.8000001907348633,
        -17.599998474121094,
        -150.39999389648438
      ],
      "type": "VEC3"
    },
    {
      "bufferView": 2,
      "byteOffset": 673056,
      "componentType": 5126,
      "count": 2952,
      "max": [
        1.7657259702682495,
        1.8077609539031982,
        1.5076472759246826
      ],
      "min": [
        -1.2667850255966187,
        -1.8387734889984131,
        -1.2278021574020386
      ],
      "type": "VEC3"
    },
    {
      "bufferView": 2,
      "byteOffset": 708480,
      "componentType": 5126,
      "count": 2952,
      "max": [
        22,
        49.299999237060547,
        196.09999084472656
      ],
      "min": [
        -8.1000003814697266,
        -29.80000114440918,
        -142.09999084472656
      ],
      "type": "VEC3"
    },
    {
      "bufferView": 2,
      "byteOffset": 743904,
      "componentType": 5126,
      "count": 2952,
      "max": [
        1.783177375793457,
        1.8458453416824341,
        1.6566982269287109
      ],
      "min": [
        -1.3911832571029663,
        -1.8357000350952148,
        -1.3368594646453857
      ],
      "type": "VEC3"
    },
    {
      "bufferView": 2,
      "byteOffset": 779328,
      "componentType": 5126,
      "count": 2952,
      "max": [
        19.399999618530273,
        36.899997711181641,
        158.89999389648438
      ],
      "min": [
        -8.4000005722045898,
        -42.5,
        -136.19999694824219
      ],
      "type": "VEC3"
    },
    {
      "bufferView": 2,
      "byteOffset": 814752,
      "componentType": 5126,
      "count": 2952,
      "max": [
        1.7275543212890625,
        1.9110203981399536,
        1.8427679538726807
      ],
      "min": [
        -1.2861413955688477,
        -1.8341017961502075,
        -1.332622766494751
      ],
      "type": "VEC3"
    },
    {
      "bufferView": 2,
      "byteOffset": 850176,
      "componentType": 5126,
      "count": 2952,
      "max": [
        14.5,
        34,
        122.19999694824219
      ],
      "min": [
        -8.0999994277954102,
        -46.400001525878906,
        -120.09999084472656
      ],
      "type": "VEC3"
    },
    {
      "bufferView": 2,
      "byteOffset": 885600,
      "componentType": 5126,
      "count": 2952,
      "max": [
        1.3123633861541748,
        1.8923289775848389,
        1.8196454048156738
      ],
      "min": [
        -1.0336788892745972,
        -1.7035090923309326,
        -1.3581380844116211
      ],
      "type": "VEC3"
    },
    {
      "bufferView": 2,
      "byteOffset": 921024,
      "componentType": 5126,
      "count": 2952,
      "max": [
        6.6000003814697266,
        30.000001907348633,
        88.099998474121094
      ],
      "min": [
        -7.3000001907348633,
        -45.299999237060547,
        -92.999992370605469
      ],
      "type": "VEC3"
    },
    {
      "bufferView": 2,
      "byteOffset": 956448,
      "componentType": 5126,
      "count": 2952,
      "max": [
        1.2814546823501587,
        1.7039101123809814,
        1.4485065937042236
      ],
      "min": [
        -1.0107004642486572,
        -1.5633847713470459,
        -1.3738211393356323
      ],
      "type": "VEC3"
    },
    {
      "bufferView": 2,
      "byteOffset": 991872,
      "componentType": 5126,
      "count": 2952,
      "max": [
        6.4000005722045898,
        20.5,
        73.199996948242188
      ],
      "min": [
        -6,
        -44.100002288818359,
        -53.899993896484375
      ],
      "type": "VEC3"
    },
    {
      "bufferView": 2,
      "byteOffset": 1027296,
      "componentType": 5126,
      "count": 2952,
      "max": [
        0.68022477626800537,
        1.5093941688537598,
        0.90913194417953491
      ],
      "min": [
        -0.8124358057975769,
        -1.4859344959259033,
        -1.350482702255249
      ],
      "type": "VEC3"
    },
    {
      "bufferView": 2,
      "byteOffset": 1062720,
      "componentType": 5126,
      "count": 2952,
      "max": [
        3,
        9.5,
        45.400001525878906
      ],
      "min": [
        -2.6999988555908203,
        -26.899999618530273,
        -23.799995422363281
      ],
      "type": "VEC3"
    },
    {
      "bufferView": 2,
      "byteOffset": 1098144,
      "componentType": 5126,
      "count": 2952,
      "max": [
        0.56727242469787598,
        0.83388704061508179,
        0.70958894491195679
      ],
      "min": [
        -0.68194073438644409,
        -0.86026918888092041,
        -1.3013720512390137
      ],
      "type": "VEC3"
    },
    {
      "bufferView": 0,
      "componentType": 5125,
      "count": 2952,
      "max": [
        2951
      ],
      "min": [
        0
      ],
      "type": "SCALAR"
    },
    {
      "bufferView": 4,
      "componentType": 5126,
      "count": 241,
      "max": [
        10.416666984558105
      ],
      "min": [
        0.041666667908430099
      ],
      "type": "SCALAR"
    },
    {
      "bufferView": 4,
      "byteOffset": 964,
      "componentType": 5126,
      "count": 3615,
      "max": [
        1
      ],
      "min": [
        0
      ],
      "type": "SCALAR"
    }
  ],
  "animations": [
    {
      "channels": [
        {
          "sampler": 0,
          "target": {
            "node": 5,
            "path": "weights"
          }
        }
      ],
      "name": "MorphBake",
      "samplers": [
        {
          "input": 35,
          "interpolation": "LINEAR",
          "output": 36
        }
      ]
    }
  ],
  "asset": {
    "extras": {
      "author": "NewGameDeveloper (https://sketchfab.com/NewGameDeveloper)",
      "license": "CC-BY-4.0 (http://creativecommons.org/licenses/by/4.0/)",
      "source": "https://sketchfab.com/3d-models/horse-run-2b7092d045314d06be60b2b1efc681bb",
      "title": "Horse Run"
    },
    "generator": "Sketchfab-9.11.0",
    "version": "2.0"
  },
  "bufferViews": [
    {
      "buffer": 0,
      "byteLength": 11808,
      "byteOffset": 0,
      "name": "floatBufferViews",
      "target": 34963
    },
    {
      "buffer": 0,
      "byteLength": 23616,
      "byteOffset": 11808,
      "byteStride": 8,
      "name": "floatBufferViews",
      "target": 34962
    },
    {
      "buffer": 0,
      "byteLength": 1133568,
      "byteOffset": 35424,
      "byteStride": 12,
      "name": "floatBufferViews",
      "target": 34962
    },
    {
      "buffer": 0,
      "byteLength": 47232,
      "byteOffset": 1168992,
      "byteStride": 16,
      "name": "floatBufferViews",
      "target": 34962
    },
    {
      "buffer": 0,
      "byteLength": 15424,
      "byteOffset": 1216224,
      "name": "floatBufferViews"
    }
  ],
  "buffers": [
    {
      "byteLength": 1231648,
      "uri": "scene.bin"
    }
  ],
  "materials": [
    {
      "doubleSided": false,
      "emissiveFactor": [
        0,
        0,
        0
      ],
      "name": "Material_0",
      "pbrMetallicRoughness": {
        "baseColorFactor": [
          1,
          1,
          1,
          1
        ],
        "metallicFactor": 0.32941455873246805,
        "roughnessFactor": 1
      }
    }
  ],
  "meshes": [
    {
      "name": "mesh_0",
      "primitives": [
        {
          "attributes": {
            "COLOR_0": 2,
            "NORMAL": 1,
            "POSITION": 0,
            "TEXCOORD_0": 3
          },
          "indices": 34,
          "material": 0,
          "mode": 4,
          "targets": [
            {
              "NORMAL": 5,
              "POSITION": 4
            },
            {
              "NORMAL": 7,
              "POSITION": 6
            },
            {
              "NORMAL": 9,
              "POSITION": 8
            },
            {
              "NORMAL": 11,
              "POSITION": 10
            },
            {
              "NORMAL": 13,
              "POSITION": 12
            },
            {
              "NORMAL": 15,
              "POSITION": 14
            },
            {
              "NORMAL": 17,
              "POSITION": 16
            },
            {
              "NORMAL": 19,
              "POSITION": 18
            },
            {
              "NORMAL": 21,
              "POSITION": 20
            },
            {
              "NORMAL": 23,
              "POSITION": 22
            },
            {
              "NORMAL": 25,
              "POSITION": 24
            },
            {
              "NORMAL": 27,
              "POSITION": 26
            },
            {
              "NORMAL": 29,
              "POSITION": 28
            },
            {
              "NORMAL": 31,
              "POSITION": 30
            },
            {
              "NORMAL": 33,
              "POSITION": 32
            }
          ]
        }
      ],
      "weights": [
        0,
        0,
        0,
        0,
        0,
        0,
        0,
        0,
        0,
        0,
        0,
        0,
        0,
        0,
        0
      ]
    }
  ],
  "nodes": [
    {
      "children": [
        1
      ],
      "name": "RootNode (gltf orientation matrix)",
      "rotation": [
        -0.70710678118654746,
        -0,
        -0,
        0.70710678118654757
      ]
    },
    {
      "children": [
        2
      ],
      "matrix": [
        0.99999970197677612,
        0.00075599126284942031,
        -1.6611145770339909e-33,
        0,
        -0.00075599126284942031,
        0.99999970197677612,
        1.6081226229577292e-16,
        0,
        1.2157267333147915e-19,
        -1.6081222259110351e-16,
        1,
        0,
        0.91921103000640869,
        -0.3113175630569458,
        -4.7813024520874023,
        1
      ],
      "name": "RootNode (model correction matrix)"
    },
    {
      "children": [
        3
      ],
      "name": "root"
    },
    {
      "children": [
        4
      ],
      "matrix": [
        1,
        0,
        0,
        0,
        0,
        2.2204460492503131e-16,
        1,
        0,
        0,
        -1,
        2.2204460492503131e-16,
        0,
        0,
        0,
        0,
        1
      ],
      "name": "GLTF_SceneRootNode"
    },
    {
      "children": [
        5
      ],
      "name": "Mesh_0_0",
      "scale": [
        0.28939080238342285,
        0.22946241497993469,
        0.24095885455608368
      ]
    },
    {
      "mesh": 0,
      "name": "mesh_0"
    }
  ],
  "scene": 0,
  "scenes": [
    {
      "name": "OSG_Scene",
      "nodes": [
        0
      ]
    }
  ]
}

