{
  "accessors": [
    {
      "bufferView": 2,
      "componentType": 5126,
      "count": 1532,
      "max": [
        74.436119079589844,
        244.86161804199219,
        74.436103820800781
      ],
      "min": [
        -74.436080932617188,
        -44.254489898681641,
        -74.436119079589844
      ],
      "type": "VEC3"
    },
    {
      "bufferView": 2,
      "byteOffset": 18384,
      "componentType": 5126,
      "count": 1532,
      "max": [
        1,
        1,
        1
      ],
      "min": [
        -1,
        -1,
        -1
      ],
      "type": "VEC3"
    },
    {
      "bufferView": 3,
      "componentType": 5126,
      "count": 1532,
      "max": [
        0.99999994039535522,
        1,
        1,
        1
      ],
      "min": [
        -1,
        -1,
        -1,
        1
      ],
      "type": "VEC4"
    },
    {
      "bufferView": 1,
      "componentType": 5126,
      "count": 1532,
      "max": [
        1,
        0.99535000324249268
      ],
      "min": [
        0,
        0
      ],
      "type": "VEC2"
    },
    {
      "bufferView": 1,
      "byteOffset": 12256,
      "componentType": 5126,
      "count": 1532,
      "max": [
        1,
        0.99535000324249268
      ],
      "min": [
        0,
        0
      ],
      "type": "VEC2"
    },
    {
      "bufferView": 1,
      "byteOffset": 24512,
      "componentType": 5126,
      "count": 1532,
      "max": [
        1,
        0.99535000324249268
      ],
      "min": [
        0,
        0
      ],
      "type": "VEC2"
    },
    {
      "bufferView": 1,
      "byteOffset": 36768,
      "componentType": 5126,
      "count": 1532,
      "max": [
        1,
        0.99535000324249268
      ],
      "min": [
        0,
        0
      ],
      "type": "VEC2"
    },
    {
      "bufferView": 1,
      "byteOffset": 49024,
      "componentType": 5126,
      "count": 1532,
      "max": [
        1,
        0.99535000324249268
      ],
      "min": [
        0,
        0
      ],
      "type": "VEC2"
    },
    {
      "bufferView": 1,
      "byteOffset": 61280,
      "componentType": 5126,
      "count": 1532,
      "max": [
        1,
        0.99535000324249268
      ],
      "min": [
        0,
        0
      ],
      "type": "VEC2"
    },
    {
      "bufferView": 0,
      "componentType": 5125,
      "count": 4464,
      "max": [
        1531
      ],
      "min": [
        0
      ],
      "type": "SCALAR"
    },
    {
      "bufferView": 2,
      "byteOffset": 36768,
      "componentType": 5126,
      "count": 8,
      "max": [
        29.739292144775391,
        -38.591121673583984,
        29.739273071289062
      ],
      "min": [
        -29.739273071289062,
        -514.597900390625,
        -29.739292144775391
      ],
      "type": "VEC3"
    },
    {
      "bufferView": 2,
      "byteOffset": 36864,
      "componentType": 5126,
      "count": 8,
      "max": [
        0.58778506517410278,
        0,
        0.8090171217918396
      ],
      "min": [
        -0.8090171217918396,
        0,
        0.58778506517410278
      ],
      "type": "VEC3"
    },
    {
      "bufferView": 3,
      "byteOffset": 24512,
      "componentType": 5126,
      "count": 8,
      "max": [
        0.054876681417226791,
        -0.99769681692123413,
        0.054876703768968582,
        1
      ],
      "min": [
        -0.05487668514251709,
        -1,
        -0.054876662790775299,
        -1
      ],
      "type": "VEC4"
    },
    {
      "bufferView": 1,
      "byteOffset": 73536,
      "componentType": 5126,
      "count": 8,
      "max": [
        0.70574700832366943,
        1.0035090446472168
      ],
      "min": [
        0.29425299167633057,
        -0.0035089999437332153
      ],
      "type": "VEC2"
    },
    {
      "bufferView": 1,
      "byteOffset": 73600,
      "componentType": 5126,
      "count": 8,
      "max": [
        0.70574700832366943,
        1.0035090446472168
      ],
      "min": [
        0.29425299167633057,
        -0.0035089999437332153
      ],
      "type": "VEC2"
    },
    {
      "bufferView": 1,
      "byteOffset": 73664,
      "componentType": 5126,
      "count": 8,
      "max": [
        0.70574700832366943,
        1.0035090446472168
      ],
      "min": [
        0.29425299167633057,
        -0.0035089999437332153
      ],
      "type": "VEC2"
    },
    {
      "bufferView": 1,
      "byteOffset": 73728,
      "componentType": 5126,
      "count": 8,
      "max": [
        0.70574700832366943,
        1.0035090446472168
      ],
      "min": [
        0.29425299167633057,
        -0.0035089999437332153
      ],
      "type": "VEC2"
    },
    {
      "bufferView": 1,
      "byteOffset": 73792,
      "componentType": 5126,
      "count": 8,
      "max": [
        0.70574700832366943,
        1.0035090446472168
      ],
      "min": [
        0.29425299167633057,
        -0.0035089999437332153
      ],
      "type": "VEC2"
    },
    {
      "bufferView": 1,
      "byteOffset": 73856,
      "componentType": 5126,
      "count": 8,
      "max": [
        0.70574700832366943,
        1.0035090446472168
      ],
      "min": [
        0.29425299167633057,
        -0.0035089999437332153
      ],
      "type": "VEC2"
    },
    {
      "bufferView": 0,
      "byteOffset": 17856,
      "componentType": 5125,
      "count": 12,
      "max": [
        7
      ],
      "min": [
        0
      ],
      "type": "SCALAR"
    }
  ],
  "asset": {
    "extras": {
      "author": "NeonSwager (https://sketchfab.com/NeonSwager)",
      "license": "CC-BY-NC-4.0 (http://creativecommons.org/licenses/by-nc/4.0/)",
      "source": "https://sketchfab.com/3d-models/test-rocket-875d5e3a190b41de9dcc75c959273853",
      "title": "Test Rocket"
    },
    "generator": "Sketchfab-4.33.0",
    "version": "2.0"
  },
  "bufferViews": [
    {
      "buffer": 0,
      "byteLength": 17904,
      "byteOffset": 0,
      "name": "floatBufferViews",
      "target": 34963
    },
    {
      "buffer": 0,
      "byteLength": 73920,
      "byteOffset": 17904,
      "byteStride": 8,
      "name": "floatBufferViews",
      "target": 34962
    },
    {
      "buffer": 0,
      "byteLength": 36960,
      "byteOffset": 91824,
      "byteStride": 12,
      "name": "floatBufferViews",
      "target": 34962
    },
    {
      "buffer": 0,
      "byteLength": 24640,
      "byteOffset": 128784,
      "byteStride": 16,
      "name": "floatBufferViews",
      "target": 34962
    }
  ],
  "buffers": [
    {
      "byteLength": 153424,
      "uri": "scene.bin"
    }
  ],
  "images": [
    {
      "uri": "textures/StingrayPBS2_baseColor.png"
    },
    {
      "uri": "textures/StingrayPBS2_metallicRoughness.png"
    },
    {
      "uri": "textures/StingrayPBS2_emissive.png"
    },
    {
      "uri": "textures/StingrayPBS2_normal.png"
    },
    {
      "uri": "textures/StingrayPBS1_baseColor.png"
    },
    {
      "uri": "textures/StingrayPBS1_emissive.png"
    },
    {
      "uri": "textures/StingrayPBS1_metallicRoughness.png"
    },
    {
      "uri": "textures/StingrayPBS1_normal.png"
    }
  ],
  "materials": [
    {
      "doubleSided": true,
      "emissiveFactor": [
        0.87080792679999997,
        0.87080792679999997,
        0.87080792679999997
      ],
      "emissiveTexture": {
        "index": 2,
        "texCoord": 0
      },
      "name": "StingrayPBS2",
      "normalTexture": {
        "index": 3,
        "scale": 1,
        "texCoord": 0
      },
      "occlusionTexture": {
        "index": 1,
        "strength": 1,
        "texCoord": 0
      },
      "pbrMetallicRoughness": {
        "baseColorFactor": [
          1,
          1,
          1,
          1
        ],
        "baseColorTexture": {
          "index": 0,
          "texCoord": 0
        },
        "metallicFactor": 1,
        "metallicRoughnessTexture": {
          "index": 1,
          "texCoord": 0
        },
        "roughnessFactor": 0.98951981710000003
      }
    },
    {
      "doubleSided": true,
      "emissiveFactor": [
        1,
        1,
        1
      ],
      "emissiveTexture": {
        "index": 5,
        "texCoord": 0
      },
      "name": "StingrayPBS1",
      "normalTexture": {
        "index": 7,
        "scale": 1,
        "texCoord": 0
      },
      "pbrMetallicRoughness": {
        "baseColorFactor": [
          1,
          1,
          1,
          1
        ],
        "baseColorTexture": {
          "index": 4,
          "texCoord": 0
        },
        "metallicFactor": 1,
        "metallicRoughnessTexture": {
          "index": 6,
          "texCoord": 0
        },
        "roughnessFactor": 1
      }
    }
  ],
  "meshes": [
    {
      "name": "_polySurface1_StingrayPBS2_0",
      "primitives": [
        {
          "attributes": {
            "NORMAL": 1,
            "POSITION": 0,
            "TANGENT": 2,
            "TEXCOORD_0": 3,
            "TEXCOORD_1": 4,
            "TEXCOORD_2": 5,
            "TEXCOORD_3": 6,
            "TEXCOORD_4": 7,
            "TEXCOORD_5": 8
          },
          "indices": 9,
          "material": 0,
          "mode": 4
        }
      ]
    },
    {
      "name": "_polySurface1_StingrayPBS1_0",
      "primitives": [
        {
          "attributes": {
            "NORMAL": 11,
            "POSITION": 10,
            "TANGENT": 12,
            "TEXCOORD_0": 13,
            "TEXCOORD_1": 14,
            "TEXCOORD_2": 15,
            "TEXCOORD_3": 16,
            "TEXCOORD_4": 17,
            "TEXCOORD_5": 18
          },
          "indices": 19,
          "material": 1,
          "mode": 4
        }
      ]
    }
  ],
  "nodes": [
    {
      "children": [
        1
      ],
      "name": "RootNode (gltf orientation matrix)",
      "rotation": [
        -0.70710678118654746,
        -0,
        -0,
        0.70710678118654757
      ]
    },
    {
      "children": [
        2
      ],
      "matrix": [
        1,
        0,
        0,
        0,
        0,
        0.93723607063293457,
        0.34869551658630371,
        0,
        0,
        -0.34869551658630371,
        0.93723607063293457,
        0,
        -103.56784820556641,
        -63.7203369140625,
        96.203659057617188,
        1
      ],
      "name": "RootNode (model correction matrix)"
    },
    {
      "children": [
        3
      ],
      "matrix": [
        1,
        0,
        0,
        0,
        0,
        0,
        1,
        0,
        0,
        -1,
        0,
        0,
        0,
        0,
        0,
        1
      ],
      "name": "Rocket3.fbx"
    },
    {
      "children": [
        4
      ],
      "name": "RootNode"
    },
    {
      "children": [
        5,
        6
      ],
      "name": "_polySurface1"
    },
    {
      "mesh": 0,
      "name": "_polySurface1_StingrayPBS2_0"
    },
    {
      "mesh": 1,
      "name": "_polySurface1_StingrayPBS1_0"
    }
  ],
  "samplers": [
    {
      "magFilter": 9729,
      "minFilter": 9987,
      "wrapS": 10497,
      "wrapT": 10497
    }
  ],
  "scene": 0,
  "scenes": [
    {
      "name": "OSG_Scene",
      "nodes": [
        0
      ]
    }
  ],
  "textures": [
    {
      "sampler": 0,
      "source": 0
    },
    {
      "sampler": 0,
      "source": 1
    },
    {
      "sampler": 0,
      "source": 2
    },
    {
      "sampler": 0,
      "source": 3
    },
    {
      "sampler": 0,
      "source": 4
    },
    {
      "sampler": 0,
      "source": 5
    },
    {
      "sampler": 0,
      "source": 6
    },
    {
      "sampler": 0,
      "source": 7
    }
  ]
}

