{
  "accessors": [
    {
      "bufferView": 3,
      "componentType": 5126,
      "count": 13929,
      "max": [
        5.8466901779174805,
        4.5882000923156738,
        48.204948425292969
      ],
      "min": [
        -5.8466901779174805,
        -4.8000001907348633,
        -0.2199999988079071
      ],
      "type": "VEC3"
    },
    {
      "bufferView": 3,
      "byteOffset": 167148,
      "componentType": 5126,
      "count": 13929,
      "max": [
        1,
        1,
        1
      ],
      "min": [
        -1,
        -1,
        -1
      ],
      "type": "VEC3"
    },
    {
      "bufferView": 4,
      "componentType": 5126,
      "count": 13929,
      "max": [
        1,
        1,
        1,
        1
      ],
      "min": [
        -1,
        -1,
        -1,
        -1
      ],
      "type": "VEC4"
    },
    {
      "bufferView": 2,
      "componentType": 5126,
      "count": 13929,
      "max": [
        0.99057000875473022,
        0.99678999185562134
      ],
      "min": [
        0.0095399999991059303,
        0.0029200001154094934
      ],
      "type": "VEC2"
    },
    {
      "bufferView": 1,
      "componentType": 5125,
      "count": 67998,
      "max": [
        13928
      ],
      "min": [
        0
      ],
      "type": "SCALAR"
    },
    {
      "bufferView": 5,
      "componentType": 5126,
      "count": 5,
      "max": [
        1,
        0,
        0,
        0,
        1,
        1,
        0,
        0,
        0,
        1,
        1,
        0,
        0,
        0,
        0,
        1
      ],
      "min": [
        -0,
        0,
        -1,
        0,
        0,
        0,
        -1,
        0,
        0,
        -1,
        0,
        0,
        -7,
        -10,
        0,
        1
      ],
      "type": "MAT4"
    },
    {
      "bufferView": 0,
      "componentType": 5123,
      "count": 13929,
      "max": [
        4,
        2,
        2,
        2
      ],
      "min": [
        2,
        2,
        2,
        2
      ],
      "type": "VEC4"
    },
    {
      "bufferView": 4,
      "byteOffset": 222864,
      "componentType": 5126,
      "count": 13929,
      "max": [
        1,
        0,
        0,
        0
      ],
      "min": [
        1,
        0,
        0,
        0
      ],
      "type": "VEC4"
    },
    {
      "bufferView": 6,
      "componentType": 5126,
      "count": 1,
      "max": [
        0
      ],
      "min": [
        0
      ],
      "type": "SCALAR"
    },
    {
      "bufferView": 8,
      "componentType": 5126,
      "count": 1,
      "max": [
        -0.5,
        -0.5,
        0.5,
        0.5
      ],
      "min": [
        -0.5,
        -0.5,
        0.5,
        0.5
      ],
      "type": "VEC4"
    },
    {
      "bufferView": 6,
      "byteOffset": 4,
      "componentType": 5126,
      "count": 1,
      "max": [
        0
      ],
      "min": [
        0
      ],
      "type": "SCALAR"
    },
    {
      "bufferView": 8,
      "byteOffset": 16,
      "componentType": 5126,
      "count": 1,
      "max": [
        0.70710676908493042,
        0,
        -0.70710676908493042,
        0
      ],
      "min": [
        0.70710676908493042,
        0,
        -0.70710676908493042,
        0
      ],
      "type": "VEC4"
    },
    {
      "bufferView": 6,
      "byteOffset": 8,
      "componentType": 5126,
      "count": 83,
      "max": [
        3.75
      ],
      "min": [
        0
      ],
      "type": "SCALAR"
    },
    {
      "bufferView": 7,
      "componentType": 5126,
      "count": 83,
      "max": [
        0,
        -9.9996500015258789,
        -7
      ],
      "min": [
        0,
        -11,
        -7
      ],
      "type": "VEC3"
    },
    {
      "bufferView": 6,
      "byteOffset": 340,
      "componentType": 5126,
      "count": 1,
      "max": [
        0
      ],
      "min": [
        0
      ],
      "type": "SCALAR"
    },
    {
      "bufferView": 8,
      "byteOffset": 32,
      "componentType": 5126,
      "count": 1,
      "max": [
        0.70710676908493042,
        0,
        -0.70710676908493042,
        0
      ],
      "min": [
        0.70710676908493042,
        0,
        -0.70710676908493042,
        0
      ],
      "type": "VEC4"
    },
    {
      "bufferView": 6,
      "byteOffset": 344,
      "componentType": 5126,
      "count": 60,
      "max": [
        3.75
      ],
      "min": [
        0
      ],
      "type": "SCALAR"
    },
    {
      "bufferView": 7,
      "byteOffset": 996,
      "componentType": 5126,
      "count": 60,
      "max": [
        0,
        3,
        0
      ],
      "min": [
        0,
        1.9996500015258789,
        0
      ],
      "type": "VEC3"
    },
    {
      "bufferView": 6,
      "byteOffset": 584,
      "componentType": 5126,
      "count": 1,
      "max": [
        0
      ],
      "min": [
        0
      ],
      "type": "SCALAR"
    },
    {
      "bufferView": 8,
      "byteOffset": 48,
      "componentType": 5126,
      "count": 1,
      "max": [
        0,
        0,
        0,
        1
      ],
      "min": [
        0,
        0,
        0,
        1
      ],
      "type": "VEC4"
    },
    {
      "bufferView": 6,
      "byteOffset": 588,
      "componentType": 5126,
      "count": 1,
      "max": [
        0
      ],
      "min": [
        0
      ],
      "type": "SCALAR"
    },
    {
      "bufferView": 8,
      "byteOffset": 64,
      "componentType": 5126,
      "count": 1,
      "max": [
        0,
        0,
        0,
        1
      ],
      "min": [
        0,
        0,
        0,
        1
      ],
      "type": "VEC4"
    },
    {
      "bufferView": 6,
      "byteOffset": 592,
      "componentType": 5126,
      "count": 1,
      "max": [
        0
      ],
      "min": [
        0
      ],
      "type": "SCALAR"
    },
    {
      "bufferView": 8,
      "byteOffset": 80,
      "componentType": 5126,
      "count": 1,
      "max": [
        -0.5,
        -0.5,
        0.5,
        0.5
      ],
      "min": [
        -0.5,
        -0.5,
        0.5,
        0.5
      ],
      "type": "VEC4"
    },
    {
      "bufferView": 6,
      "byteOffset": 596,
      "componentType": 5126,
      "count": 1,
      "max": [
        0
      ],
      "min": [
        0
      ],
      "type": "SCALAR"
    },
    {
      "bufferView": 8,
      "byteOffset": 96,
      "componentType": 5126,
      "count": 1,
      "max": [
        0.70710676908493042,
        0,
        -0.70710676908493042,
        0
      ],
      "min": [
        0.70710676908493042,
        0,
        -0.70710676908493042,
        0
      ],
      "type": "VEC4"
    },
    {
      "bufferView": 6,
      "byteOffset": 600,
      "componentType": 5126,
      "count": 64,
      "max": [
        3.75
      ],
      "min": [
        0
      ],
      "type": "SCALAR"
    },
    {
      "bufferView": 7,
      "byteOffset": 1716,
      "componentType": 5126,
      "count": 64,
      "max": [
        -0,
        -10,
        -7
      ],
      "min": [
        -0,
        -11,
        -7
      ],
      "type": "VEC3"
    },
    {
      "bufferView": 6,
      "byteOffset": 856,
      "componentType": 5126,
      "count": 1,
      "max": [
        0
      ],
      "min": [
        0
      ],
      "type": "SCALAR"
    },
    {
      "bufferView": 8,
      "byteOffset": 112,
      "componentType": 5126,
      "count": 1,
      "max": [
        0.70710676908493042,
        0,
        -0.70710676908493042,
        0
      ],
      "min": [
        0.70710676908493042,
        0,
        -0.70710676908493042,
        0
      ],
      "type": "VEC4"
    },
    {
      "bufferView": 6,
      "byteOffset": 860,
      "componentType": 5126,
      "count": 46,
      "max": [
        3.75
      ],
      "min": [
        0
      ],
      "type": "SCALAR"
    },
    {
      "bufferView": 7,
      "byteOffset": 2484,
      "componentType": 5126,
      "count": 46,
      "max": [
        0,
        3,
        0
      ],
      "min": [
        0,
        2,
        0
      ],
      "type": "VEC3"
    },
    {
      "bufferView": 6,
      "byteOffset": 1044,
      "componentType": 5126,
      "count": 1,
      "max": [
        0
      ],
      "min": [
        0
      ],
      "type": "SCALAR"
    },
    {
      "bufferView": 8,
      "byteOffset": 128,
      "componentType": 5126,
      "count": 1,
      "max": [
        0,
        0,
        0,
        1
      ],
      "min": [
        0,
        0,
        0,
        1
      ],
      "type": "VEC4"
    },
    {
      "bufferView": 6,
      "byteOffset": 1048,
      "componentType": 5126,
      "count": 1,
      "max": [
        0
      ],
      "min": [
        0
      ],
      "type": "SCALAR"
    },
    {
      "bufferView": 8,
      "byteOffset": 144,
      "componentType": 5126,
      "count": 1,
      "max": [
        0,
        0,
        0,
        1
      ],
      "min": [
        0,
        0,
        0,
        1
      ],
      "type": "VEC4"
    },
    {
      "bufferView": 6,
      "byteOffset": 1052,
      "componentType": 5126,
      "count": 1,
      "max": [
        0
      ],
      "min": [
        0
      ],
      "type": "SCALAR"
    },
    {
      "bufferView": 8,
      "byteOffset": 160,
      "componentType": 5126,
      "count": 1,
      "max": [
        -0.5,
        -0.5,
        0.5,
        0.5
      ],
      "min": [
        -0.5,
        -0.5,
        0.5,
        0.5
      ],
      "type": "VEC4"
    },
    {
      "bufferView": 6,
      "byteOffset": 1056,
      "componentType": 5126,
      "count": 1,
      "max": [
        0
      ],
      "min": [
        0
      ],
      "type": "SCALAR"
    },
    {
      "bufferView": 8,
      "byteOffset": 176,
      "componentType": 5126,
      "count": 1,
      "max": [
        0.70710676908493042,
        0,
        -0.70710676908493042,
        0
      ],
      "min": [
        0.70710676908493042,
        0,
        -0.70710676908493042,
        0
      ],
      "type": "VEC4"
    },
    {
      "bufferView": 6,
      "byteOffset": 1060,
      "componentType": 5126,
      "count": 1,
      "max": [
        0
      ],
      "min": [
        0
      ],
      "type": "SCALAR"
    },
    {
      "bufferView": 8,
      "byteOffset": 192,
      "componentType": 5126,
      "count": 1,
      "max": [
        0.70710676908493042,
        0,
        -0.70710676908493042,
        0
      ],
      "min": [
        0.70710676908493042,
        0,
        -0.70710676908493042,
        0
      ],
      "type": "VEC4"
    },
    {
      "bufferView": 6,
      "byteOffset": 1064,
      "componentType": 5126,
      "count": 1,
      "max": [
        0
      ],
      "min": [
        0
      ],
      "type": "SCALAR"
    },
    {
      "bufferView": 8,
      "byteOffset": 208,
      "componentType": 5126,
      "count": 1,
      "max": [
        0,
        0,
        0,
        1
      ],
      "min": [
        0,
        0,
        0,
        1
      ],
      "type": "VEC4"
    },
    {
      "bufferView": 6,
      "byteOffset": 1068,
      "componentType": 5126,
      "count": 1,
      "max": [
        0
      ],
      "min": [
        0
      ],
      "type": "SCALAR"
    },
    {
      "bufferView": 8,
      "byteOffset": 224,
      "componentType": 5126,
      "count": 1,
      "max": [
        0,
        0,
        0,
        1
      ],
      "min": [
        0,
        0,
        0,
        1
      ],
      "type": "VEC4"
    }
  ],
  "animations": [
    {
      "channels": [
        {
          "sampler": 0,
          "target": {
            "node": 5,
            "path": "rotation"
          }
        },
        {
          "sampler": 1,
          "target": {
            "node": 6,
            "path": "rotation"
          }
        },
        {
          "sampler": 2,
          "target": {
            "node": 7,
            "path": "translation"
          }
        },
        {
          "sampler": 3,
          "target": {
            "node": 7,
            "path": "rotation"
          }
        },
        {
          "sampler": 4,
          "target": {
            "node": 8,
            "path": "translation"
          }
        },
        {
          "sampler": 5,
          "target": {
            "node": 8,
            "path": "rotation"
          }
        },
        {
          "sampler": 6,
          "target": {
            "node": 3,
            "path": "rotation"
          }
        }
      ],
      "name": "retract",
      "samplers": [
        {
          "input": 8,
          "interpolation": "LINEAR",
          "output": 9
        },
        {
          "input": 10,
          "interpolation": "LINEAR",
          "output": 11
        },
        {
          "input": 12,
          "interpolation": "LINEAR",
          "output": 13
        },
        {
          "input": 14,
          "interpolation": "LINEAR",
          "output": 15
        },
        {
          "input": 16,
          "interpolation": "LINEAR",
          "output": 17
        },
        {
          "input": 18,
          "interpolation": "LINEAR",
          "output": 19
        },
        {
          "input": 20,
          "interpolation": "LINEAR",
          "output": 21
        }
      ]
    },
    {
      "channels": [
        {
          "sampler": 0,
          "target": {
            "node": 5,
            "path": "rotation"
          }
        },
        {
          "sampler": 1,
          "target": {
            "node": 6,
            "path": "rotation"
          }
        },
        {
          "sampler": 2,
          "target": {
            "node": 7,
            "path": "translation"
          }
        },
        {
          "sampler": 3,
          "target": {
            "node": 7,
            "path": "rotation"
          }
        },
        {
          "sampler": 4,
          "target": {
            "node": 8,
            "path": "translation"
          }
        },
        {
          "sampler": 5,
          "target": {
            "node": 8,
            "path": "rotation"
          }
        },
        {
          "sampler": 6,
          "target": {
            "node": 3,
            "path": "rotation"
          }
        }
      ],
      "name": "deploy",
      "samplers": [
        {
          "input": 22,
          "interpolation": "LINEAR",
          "output": 23
        },
        {
          "input": 24,
          "interpolation": "LINEAR",
          "output": 25
        },
        {
          "input": 26,
          "interpolation": "LINEAR",
          "output": 27
        },
        {
          "input": 28,
          "interpolation": "LINEAR",
          "output": 29
        },
        {
          "input": 30,
          "interpolation": "LINEAR",
          "output": 31
        },
        {
          "input": 32,
          "interpolation": "LINEAR",
          "output": 33
        },
        {
          "input": 34,
          "interpolation": "LINEAR",
          "output": 35
        }
      ]
    },
    {
      "channels": [
        {
          "sampler": 0,
          "target": {
            "node": 5,
            "path": "rotation"
          }
        },
        {
          "sampler": 1,
          "target": {
            "node": 6,
            "path": "rotation"
          }
        },
        {
          "sampler": 2,
          "target": {
            "node": 7,
            "path": "rotation"
          }
        },
        {
          "sampler": 3,
          "target": {
            "node": 8,
            "path": "rotation"
          }
        },
        {
          "sampler": 4,
          "target": {
            "node": 3,
            "path": "rotation"
          }
        }
      ],
      "name": "idle",
      "samplers": [
        {
          "input": 36,
          "interpolation": "LINEAR",
          "output": 37
        },
        {
          "input": 38,
          "interpolation": "LINEAR",
          "output": 39
        },
        {
          "input": 40,
          "interpolation": "LINEAR",
          "output": 41
        },
        {
          "input": 42,
          "interpolation": "LINEAR",
          "output": 43
        },
        {
          "input": 44,
          "interpolation": "LINEAR",
          "output": 45
        }
      ]
    }
  ],
  "asset": {
    "extras": {
      "author": "Jon Ross (https://sketchfab.com/zlsa)",
      "license": "CC-BY-4.0 (http://creativecommons.org/licenses/by/4.0/)",
      "source": "https://sketchfab.com/models/91d20e0deeb74a56b7f8b3b3b0a38044",
      "title": "SpaceX BFR (WIP)"
    },
    "generator": "Sketchfab-3.47.2",
    "version": "2.0"
  },
  "bufferViews": [
    {
      "buffer": 0,
      "byteLength": 111432,
      "byteOffset": 0,
      "byteStride": 8,
      "name": "shortBufferViews",
      "target": 34962
    },
    {
      "buffer": 0,
      "byteLength": 271992,
      "byteOffset": 111432,
      "name": "floatBufferViews",
      "target": 34963
    },
    {
      "buffer": 0,
      "byteLength": 111432,
      "byteOffset": 383424,
      "byteStride": 8,
      "name": "floatBufferViews",
      "target": 34962
    },
    {
      "buffer": 0,
      "byteLength": 334296,
      "byteOffset": 494856,
      "byteStride": 12,
      "name": "floatBufferViews",
      "target": 34962
    },
    {
      "buffer": 0,
      "byteLength": 445728,
      "byteOffset": 829152,
      "byteStride": 16,
      "name": "floatBufferViews",
      "target": 34962
    },
    {
      "buffer": 0,
      "byteLength": 320,
      "byteOffset": 1274880,
      "byteStride": 64,
      "name": "floatBufferViews"
    },
    {
      "buffer": 0,
      "byteLength": 1072,
      "byteOffset": 1275200,
      "name": "floatBufferViews"
    },
    {
      "buffer": 0,
      "byteLength": 3036,
      "byteOffset": 1276272,
      "byteStride": 12,
      "name": "floatBufferViews"
    },
    {
      "buffer": 0,
      "byteLength": 240,
      "byteOffset": 1279308,
      "byteStride": 16,
      "name": "floatBufferViews"
    }
  ],
  "buffers": [
    {
      "byteLength": 1279548,
      "uri": "scene.bin"
    }
  ],
  "images": [
    {
      "uri": "textures/ship_baseColor.png"
    },
    {
      "uri": "textures/ship_metallicRoughness.png"
    },
    {
      "uri": "textures/ship_normal.png"
    }
  ],
  "materials": [
    {
      "doubleSided": true,
      "name": "ship",
      "normalTexture": {
        "index": 2,
        "scale": 1,
        "texCoord": 0
      },
      "occlusionTexture": {
        "index": 1,
        "strength": 1,
        "texCoord": 0
      },
      "pbrMetallicRoughness": {
        "baseColorFactor": [
          1,
          1,
          1,
          1
        ],
        "baseColorTexture": {
          "index": 0,
          "texCoord": 0
        },
        "metallicFactor": 1,
        "metallicRoughnessTexture": {
          "index": 1,
          "texCoord": 0
        },
        "roughnessFactor": 1
      }
    }
  ],
  "meshes": [
    {
      "name": "tanker body",
      "primitives": [
        {
          "attributes": {
            "JOINTS_0": 6,
            "NORMAL": 1,
            "POSITION": 0,
            "TANGENT": 2,
            "TEXCOORD_0": 3,
            "WEIGHTS_0": 7
          },
          "indices": 4,
          "material": 0,
          "mode": 4
        }
      ]
    }
  ],
  "nodes": [
    {
      "children": [
        1
      ],
      "name": "RootNode (gltf orientation matrix)",
      "rotation": [
        -0.70710678118654746,
        -0,
        -0,
        0.70710678118654757
      ]
    },
    {
      "children": [
        2
      ],
      "matrix": [
        -0.005366345401853323,
        0.99998557567596436,
        0,
        0,
        0,
        0,
        1,
        0,
        0.99998557567596436,
        0.005366345401853323,
        0,
        0,
        -23.066286087036133,
        -0.33556178212165833,
        23.273324966430664,
        1
      ],
      "name": "RootNode (model correction matrix)"
    },
    {
      "children": [
        3
      ],
      "name": "Root"
    },
    {
      "children": [
        4,
        10,
        9
      ],
      "name": "ship-rig"
    },
    {
      "children": [
        5
      ],
      "name": "ship-rig_rootJoint"
    },
    {
      "children": [
        6
      ],
      "name": "root_ship-rig",
      "rotation": [
        -0.5,
        -0.5,
        0.5,
        0.5
      ],
      "scale": [
        1,
        1,
        1
      ],
      "translation": [
        0,
        0,
        0
      ]
    },
    {
      "children": [
        7
      ],
      "name": "ship_ship-rig",
      "rotation": [
        0.7071068286895752,
        0,
        -0.7071068286895752,
        0
      ],
      "scale": [
        1,
        1,
        1
      ],
      "translation": [
        0,
        -10,
        0
      ]
    },
    {
      "children": [
        8
      ],
      "name": "legs_ship-rig",
      "rotation": [
        0.7071068286895752,
        0,
        -0.7071068286895752,
        0
      ],
      "scale": [
        1,
        1,
        1
      ],
      "translation": [
        0,
        -10,
        -7
      ]
    },
    {
      "name": "feet_ship-rig",
      "rotation": [
        0,
        0,
        0,
        1
      ],
      "scale": [
        1,
        1,
        1
      ],
      "translation": [
        0,
        2,
        0
      ]
    },
    {
      "name": "tanker body"
    },
    {
      "mesh": 0,
      "name": "tanker body_0",
      "skin": 0
    }
  ],
  "samplers": [
    {
      "magFilter": 9729,
      "minFilter": 9987,
      "wrapS": 10497,
      "wrapT": 10497
    }
  ],
  "scene": 0,
  "scenes": [
    {
      "name": "OSG_Scene",
      "nodes": [
        0
      ]
    }
  ],
  "skins": [
    {
      "inverseBindMatrices": 5,
      "joints": [
        4,
        5,
        6,
        7,
        8
      ],
      "skeleton": 4
    }
  ],
  "textures": [
    {
      "sampler": 0,
      "source": 0
    },
    {
      "sampler": 0,
      "source": 1
    },
    {
      "sampler": 0,
      "source": 2
    }
  ]
}

