{
  "accessors": [
    {
      "bufferView": 2,
      "componentType": 5126,
      "count": 4027,
      "max": [
        64.807266235351562,
        310.15859985351562,
        160.5224609375
      ],
      "min": [
        -62.501377105712891,
        -187.37234497070312,
        16.416645050048828
      ],
      "type": "VEC3"
    },
    {
      "bufferView": 2,
      "byteOffset": 48324,
      "componentType": 5126,
      "count": 4027,
      "max": [
        1,
        1,
        1
      ],
      "min": [
        -1,
        -1,
        -1
      ],
      "type": "VEC3"
    },
    {
      "bufferView": 3,
      "componentType": 5126,
      "count": 4027,
      "max": [
        1,
        1,
        1,
        1
      ],
      "min": [
        -1,
        -1,
        -1,
        -1
      ],
      "type": "VEC4"
    },
    {
      "bufferView": 1,
      "componentType": 5126,
      "count": 4027,
      "max": [
        0.99788498878479004,
        1.0021629333496094
      ],
      "min": [
        0.0029980000108480453,
        0.016745686531066895
      ],
      "type": "VEC2"
    },
    {
      "bufferView": 0,
      "componentType": 5125,
      "count": 10857,
      "max": [
        4026
      ],
      "min": [
        0
      ],
      "type": "SCALAR"
    },
    {
      "bufferView": 2,
      "byteOffset": 96648,
      "componentType": 5126,
      "count": 185,
      "max": [
        14.151050567626953,
        21.895660400390625,
        21.339197158813477
      ],
      "min": [
        -14.151050567626953,
        -21.89569091796875,
        -21.339214324951172
      ],
      "type": "VEC3"
    },
    {
      "bufferView": 2,
      "byteOffset": 98868,
      "componentType": 5126,
      "count": 185,
      "max": [
        1,
        0.98147165775299072,
        0.98147177696228027
      ],
      "min": [
        -0.99999994039535522,
        -0.98147177696228027,
        -0.99187439680099487
      ],
      "type": "VEC3"
    },
    {
      "bufferView": 3,
      "byteOffset": 64432,
      "componentType": 5126,
      "count": 185,
      "max": [
        0.77627968788146973,
        0.99187487363815308,
        0.98147225379943848,
        1
      ],
      "min": [
        -0.78101783990859985,
        -1,
        -0.98438739776611328,
        -1
      ],
      "type": "VEC4"
    },
    {
      "bufferView": 1,
      "byteOffset": 32216,
      "componentType": 5126,
      "count": 185,
      "max": [
        0.63839197158813477,
        0.97333264350891113
      ],
      "min": [
        0.0031300000846385956,
        0.50582754611968994
      ],
      "type": "VEC2"
    },
    {
      "bufferView": 0,
      "byteOffset": 43428,
      "componentType": 5125,
      "count": 618,
      "max": [
        184
      ],
      "min": [
        0
      ],
      "type": "SCALAR"
    },
    {
      "bufferView": 2,
      "byteOffset": 101088,
      "componentType": 5126,
      "count": 185,
      "max": [
        14.151050567626953,
        21.895660400390625,
        21.339197158813477
      ],
      "min": [
        -14.151050567626953,
        -21.89569091796875,
        -21.339214324951172
      ],
      "type": "VEC3"
    },
    {
      "bufferView": 2,
      "byteOffset": 103308,
      "componentType": 5126,
      "count": 185,
      "max": [
        1,
        0.98147165775299072,
        0.98147177696228027
      ],
      "min": [
        -0.99999994039535522,
        -0.98147177696228027,
        -0.99187439680099487
      ],
      "type": "VEC3"
    },
    {
      "bufferView": 3,
      "byteOffset": 67392,
      "componentType": 5126,
      "count": 185,
      "max": [
        0.77627968788146973,
        0.99187487363815308,
        0.98147225379943848,
        1
      ],
      "min": [
        -0.78101783990859985,
        -1,
        -0.98438739776611328,
        -1
      ],
      "type": "VEC4"
    },
    {
      "bufferView": 1,
      "byteOffset": 33696,
      "componentType": 5126,
      "count": 185,
      "max": [
        0.63839197158813477,
        0.97333264350891113
      ],
      "min": [
        0.0031300000846385956,
        0.50582754611968994
      ],
      "type": "VEC2"
    },
    {
      "bufferView": 0,
      "byteOffset": 45900,
      "componentType": 5125,
      "count": 618,
      "max": [
        184
      ],
      "min": [
        0
      ],
      "type": "SCALAR"
    },
    {
      "bufferView": 2,
      "byteOffset": 105528,
      "componentType": 5126,
      "count": 185,
      "max": [
        14.151050567626953,
        21.895660400390625,
        21.339197158813477
      ],
      "min": [
        -14.151050567626953,
        -21.89569091796875,
        -21.339214324951172
      ],
      "type": "VEC3"
    },
    {
      "bufferView": 2,
      "byteOffset": 107748,
      "componentType": 5126,
      "count": 185,
      "max": [
        1,
        0.98147165775299072,
        0.98147177696228027
      ],
      "min": [
        -0.99999994039535522,
        -0.98147177696228027,
        -0.99187439680099487
      ],
      "type": "VEC3"
    },
    {
      "bufferView": 3,
      "byteOffset": 70352,
      "componentType": 5126,
      "count": 185,
      "max": [
        0.77627968788146973,
        0.99187487363815308,
        0.98147225379943848,
        1
      ],
      "min": [
        -0.78101783990859985,
        -1,
        -0.98438739776611328,
        -1
      ],
      "type": "VEC4"
    },
    {
      "bufferView": 1,
      "byteOffset": 35176,
      "componentType": 5126,
      "count": 185,
      "max": [
        0.63839197158813477,
        0.97333264350891113
      ],
      "min": [
        0.0031300000846385956,
        0.50582754611968994
      ],
      "type": "VEC2"
    },
    {
      "bufferView": 0,
      "byteOffset": 48372,
      "componentType": 5125,
      "count": 618,
      "max": [
        184
      ],
      "min": [
        0
      ],
      "type": "SCALAR"
    },
    {
      "bufferView": 2,
      "byteOffset": 109968,
      "componentType": 5126,
      "count": 185,
      "max": [
        14.151050567626953,
        21.895660400390625,
        21.339197158813477
      ],
      "min": [
        -14.151050567626953,
        -21.89569091796875,
        -21.339214324951172
      ],
      "type": "VEC3"
    },
    {
      "bufferView": 2,
      "byteOffset": 112188,
      "componentType": 5126,
      "count": 185,
      "max": [
        1,
        0.98147165775299072,
        0.98147177696228027
      ],
      "min": [
        -0.99999994039535522,
        -0.98147177696228027,
        -0.99187439680099487
      ],
      "type": "VEC3"
    },
    {
      "bufferView": 3,
      "byteOffset": 73312,
      "componentType": 5126,
      "count": 185,
      "max": [
        0.77627968788146973,
        0.99187487363815308,
        0.98147225379943848,
        1
      ],
      "min": [
        -0.78101783990859985,
        -1,
        -0.98438739776611328,
        -1
      ],
      "type": "VEC4"
    },
    {
      "bufferView": 1,
      "byteOffset": 36656,
      "componentType": 5126,
      "count": 185,
      "max": [
        0.63839197158813477,
        0.97333264350891113
      ],
      "min": [
        0.0031300000846385956,
        0.50582754611968994
      ],
      "type": "VEC2"
    },
    {
      "bufferView": 0,
      "byteOffset": 50844,
      "componentType": 5125,
      "count": 618,
      "max": [
        184
      ],
      "min": [
        0
      ],
      "type": "SCALAR"
    },
    {
      "bufferView": 2,
      "byteOffset": 114408,
      "componentType": 5126,
      "count": 195,
      "max": [
        6.9866943359375,
        21.89569091796875,
        21.339200973510742
      ],
      "min": [
        -6.9866981506347656,
        -21.895660400390625,
        -21.339202880859375
      ],
      "type": "VEC3"
    },
    {
      "bufferView": 2,
      "byteOffset": 116748,
      "componentType": 5126,
      "count": 195,
      "max": [
        0.99999988079071045,
        0.98147153854370117,
        0.9814714789390564
      ],
      "min": [
        -1,
        -0.98147153854370117,
        -0.9918743371963501
      ],
      "type": "VEC3"
    },
    {
      "bufferView": 3,
      "byteOffset": 76272,
      "componentType": 5126,
      "count": 195,
      "max": [
        0.80877834558486938,
        0.99366658926010132,
        0.98451995849609375,
        1
      ],
      "min": [
        -0.80860239267349243,
        -1,
        -0.98387104272842407,
        -1
      ],
      "type": "VEC4"
    },
    {
      "bufferView": 1,
      "byteOffset": 38136,
      "componentType": 5126,
      "count": 195,
      "max": [
        0.49496498703956604,
        0.99854850769042969
      ],
      "min": [
        0.0033410000614821911,
        0.66422659158706665
      ],
      "type": "VEC2"
    },
    {
      "bufferView": 0,
      "byteOffset": 53316,
      "componentType": 5125,
      "count": 684,
      "max": [
        194
      ],
      "min": [
        0
      ],
      "type": "SCALAR"
    },
    {
      "bufferView": 2,
      "byteOffset": 119088,
      "componentType": 5126,
      "count": 195,
      "max": [
        6.9866981506347656,
        21.89569091796875,
        21.339200973510742
      ],
      "min": [
        -6.9866943359375,
        -21.895660400390625,
        -21.339199066162109
      ],
      "type": "VEC3"
    },
    {
      "bufferView": 2,
      "byteOffset": 121428,
      "componentType": 5126,
      "count": 195,
      "max": [
        1,
        0.9814714789390564,
        0.9814714789390564
      ],
      "min": [
        -0.99999988079071045,
        -0.9814714789390564,
        -0.9918743371963501
      ],
      "type": "VEC3"
    },
    {
      "bufferView": 3,
      "byteOffset": 79392,
      "componentType": 5126,
      "count": 195,
      "max": [
        0.80868369340896606,
        0.9919092059135437,
        0.98509395122528076,
        1
      ],
      "min": [
        -0.80913239717483521,
        -1,
        -0.98572099208831787,
        -1
      ],
      "type": "VEC4"
    },
    {
      "bufferView": 1,
      "byteOffset": 39696,
      "componentType": 5126,
      "count": 195,
      "max": [
        0.49496498703956604,
        0.99854850769042969
      ],
      "min": [
        0.0033410000614821911,
        0.66422659158706665
      ],
      "type": "VEC2"
    },
    {
      "bufferView": 0,
      "byteOffset": 56052,
      "componentType": 5125,
      "count": 684,
      "max": [
        194
      ],
      "min": [
        0
      ],
      "type": "SCALAR"
    }
  ],
  "asset": {
    "extras": {
      "author": "Hasnat Ahmed Khan (https://sketchfab.com/hasnatahmedkhan216)",
      "license": "CC-BY-4.0 (http://creativecommons.org/licenses/by/4.0/)",
      "source": "https://sketchfab.com/3d-models/italeri-truck-efdce2d230764de599cd574f5a20b55c",
      "title": "Italeri Truck"
    },
    "generator": "Sketchfab-5.68.0",
    "version": "2.0"
  },
  "bufferViews": [
    {
      "buffer": 0,
      "byteLength": 58788,
      "byteOffset": 0,
      "name": "floatBufferViews",
      "target": 34963
    },
    {
      "buffer": 0,
      "byteLength": 41256,
      "byteOffset": 58788,
      "byteStride": 8,
      "name": "floatBufferViews",
      "target": 34962
    },
    {
      "buffer": 0,
      "byteLength": 123768,
      "byteOffset": 100044,
      "byteStride": 12,
      "name": "floatBufferViews",
      "target": 34962
    },
    {
      "buffer": 0,
      "byteLength": 82512,
      "byteOffset": 223812,
      "byteStride": 16,
      "name": "floatBufferViews",
      "target": 34962
    }
  ],
  "buffers": [
    {
      "byteLength": 306324,
      "uri": "scene.bin"
    }
  ],
  "images": [
    {
      "uri": "textures/smdimportmtl_baseColor.jpeg"
    }
  ],
  "materials": [
    {
      "doubleSided": true,
      "emissiveFactor": [
        0,
        0,
        0
      ],
      "name": "smdimportmtl",
      "pbrMetallicRoughness": {
        "baseColorFactor": [
          1,
          1,
          1,
          1
        ],
        "baseColorTexture": {
          "index": 0,
          "texCoord": 0
        },
        "metallicFactor": 0,
        "roughnessFactor": 0.89297135959999996
      }
    }
  ],
  "meshes": [
    {
      "name": "italeri truck_smdimportmtl_0",
      "primitives": [
        {
          "attributes": {
            "NORMAL": 1,
            "POSITION": 0,
            "TANGENT": 2,
            "TEXCOORD_0": 3
          },
          "indices": 4,
          "material": 0,
          "mode": 4
        }
      ]
    },
    {
      "name": "L2_smdimportmtl_0",
      "primitives": [
        {
          "attributes": {
            "NORMAL": 6,
            "POSITION": 5,
            "TANGENT": 7,
            "TEXCOORD_0": 8
          },
          "indices": 9,
          "material": 0,
          "mode": 4
        }
      ]
    },
    {
      "name": "L3_smdimportmtl_0",
      "primitives": [
        {
          "attributes": {
            "NORMAL": 11,
            "POSITION": 10,
            "TANGENT": 12,
            "TEXCOORD_0": 13
          },
          "indices": 14,
          "material": 0,
          "mode": 4
        }
      ]
    },
    {
      "name": "R 2_smdimportmtl_0",
      "primitives": [
        {
          "attributes": {
            "NORMAL": 16,
            "POSITION": 15,
            "TANGENT": 17,
            "TEXCOORD_0": 18
          },
          "indices": 19,
          "material": 0,
          "mode": 4
        }
      ]
    },
    {
      "name": "R 3_smdimportmtl_0",
      "primitives": [
        {
          "attributes": {
            "NORMAL": 21,
            "POSITION": 20,
            "TANGENT": 22,
            "TEXCOORD_0": 23
          },
          "indices": 24,
          "material": 0,
          "mode": 4
        }
      ]
    },
    {
      "name": "R1_smdimportmtl_0",
      "primitives": [
        {
          "attributes": {
            "NORMAL": 26,
            "POSITION": 25,
            "TANGENT": 27,
            "TEXCOORD_0": 28
          },
          "indices": 29,
          "material": 0,
          "mode": 4
        }
      ]
    },
    {
      "name": "L1_smdimportmtl_0",
      "primitives": [
        {
          "attributes": {
            "NORMAL": 31,
            "POSITION": 30,
            "TANGENT": 32,
            "TEXCOORD_0": 33
          },
          "indices": 34,
          "material": 0,
          "mode": 4
        }
      ]
    }
  ],
  "nodes": [
    {
      "children": [
        1
      ],
      "name": "RootNode (gltf orientation matrix)",
      "rotation": [
        -0.70710678118654746,
        -0,
        -0,
        0.70710678118654757
      ]
    },
    {
      "children": [
        2
      ],
      "matrix": [
        0.52511006593704224,
        -0.85103434324264526,
        0,
        0,
        0.85103434324264526,
        0.52511006593704224,
        0,
        0,
        0,
        0,
        1,
        0,
        32.794544219970703,
        -17.870944976806641,
        3.8429999449363095e-07,
        1
      ],
      "name": "RootNode (model correction matrix)"
    },
    {
      "children": [
        3
      ],
      "matrix": [
        1,
        0,
        0,
        0,
        0,
        0,
        1,
        0,
        0,
        -1,
        0,
        0,
        0,
        0,
        0,
        1
      ],
      "name": "b5d1245248c14bd8802c6a6e8142f195.fbx"
    },
    {
      "children": [
        4,
        6,
        9,
        12,
        15,
        18,
        21
      ],
      "name": "RootNode"
    },
    {
      "children": [
        5
      ],
      "matrix": [
        1,
        0,
        0,
        0,
        0,
        2.2204460492503131e-16,
        -1,
        0,
        0,
        1,
        2.2204460492503131e-16,
        0,
        -0.76860904693603516,
        7.62939453125e-06,
        99.7138671875,
        1
      ],
      "name": "italeri truck"
    },
    {
      "mesh": 0,
      "name": "italeri truck_smdimportmtl_0"
    },
    {
      "children": [
        7
      ],
      "matrix": [
        1,
        0,
        0,
        0,
        0,
        0.999999999999999,
        4.3711388286737922e-08,
        0,
        0,
        -4.3711388286737922e-08,
        0.999999999999999,
        0,
        42.243743896484375,
        21.47454833984375,
        -102.63400268554688,
        1
      ],
      "name": "L2"
    },
    {
      "children": [
        8
      ],
      "matrix": [
        1,
        0,
        0,
        0,
        0,
        6.123233995736766e-17,
        -1,
        0,
        -0,
        1,
        6.123233995736766e-17,
        0,
        0,
        0,
        0,
        1
      ],
      "name": ""
    },
    {
      "mesh": 1,
      "name": "L2_smdimportmtl_0"
    },
    {
      "children": [
        10
      ],
      "matrix": [
        1,
        0,
        0,
        0,
        0,
        0.999999999999999,
        4.3711388286737922e-08,
        0,
        0,
        -4.3711388286737922e-08,
        0.999999999999999,
        0,
        42.243743896484375,
        21.47454833984375,
        -159.04342651367188,
        1
      ],
      "name": "L3"
    },
    {
      "children": [
        11
      ],
      "matrix": [
        1,
        0,
        0,
        0,
        0,
        6.123233995736766e-17,
        -1,
        0,
        -0,
        1,
        6.123233995736766e-17,
        0,
        0,
        0,
        0,
        1
      ],
      "name": ""
    },
    {
      "mesh": 2,
      "name": "L3_smdimportmtl_0"
    },
    {
      "children": [
        13
      ],
      "matrix": [
        -1,
        -0,
        -0,
        -0,
        -0,
        -0.999999999999999,
        -4.3711388409202601e-08,
        -0,
        -0,
        4.3711388409202601e-08,
        -0.999999999999999,
        -0,
        -43.763923645019531,
        21.47454833984375,
        -102.63400268554688,
        1
      ],
      "name": "R 2"
    },
    {
      "children": [
        14
      ],
      "matrix": [
        1,
        0,
        0,
        0,
        0,
        6.123233995736766e-17,
        -1,
        0,
        -0,
        1,
        6.123233995736766e-17,
        0,
        0,
        0,
        0,
        1
      ],
      "name": ""
    },
    {
      "mesh": 3,
      "name": "R 2_smdimportmtl_0"
    },
    {
      "children": [
        16
      ],
      "matrix": [
        -1,
        -0,
        -0,
        -0,
        -0,
        -0.999999999999999,
        -4.3711388409202601e-08,
        -0,
        -0,
        4.3711388409202601e-08,
        -0.999999999999999,
        -0,
        -43.763923645019531,
        21.47454833984375,
        -159.04342651367188,
        1
      ],
      "name": "R 3"
    },
    {
      "children": [
        17
      ],
      "matrix": [
        1,
        0,
        0,
        0,
        0,
        6.123233995736766e-17,
        -1,
        0,
        -0,
        1,
        6.123233995736766e-17,
        0,
        0,
        0,
        0,
        1
      ],
      "name": ""
    },
    {
      "mesh": 4,
      "name": "R 3_smdimportmtl_0"
    },
    {
      "children": [
        19
      ],
      "matrix": [
        1,
        0,
        0,
        0,
        0,
        0.999999999999999,
        4.3711388286737922e-08,
        0,
        0,
        -4.3711388286737922e-08,
        0.999999999999999,
        0,
        -42.581764221191406,
        21.474554061889648,
        257.58197021484375,
        1
      ],
      "name": "R1"
    },
    {
      "children": [
        20
      ],
      "matrix": [
        1,
        0,
        0,
        0,
        0,
        6.123233995736766e-17,
        -1,
        0,
        -0,
        1,
        6.123233995736766e-17,
        0,
        0,
        0,
        0,
        1
      ],
      "name": ""
    },
    {
      "mesh": 5,
      "name": "R1_smdimportmtl_0"
    },
    {
      "children": [
        22
      ],
      "matrix": [
        1,
        0,
        0,
        0,
        0,
        0.999999999999999,
        4.3711388286737922e-08,
        0,
        0,
        -4.3711388286737922e-08,
        0.999999999999999,
        0,
        41.044609069824219,
        21.474554061889648,
        257.58197021484375,
        1
      ],
      "name": "L1"
    },
    {
      "children": [
        23
      ],
      "matrix": [
        1,
        0,
        0,
        0,
        0,
        6.123233995736766e-17,
        -1,
        0,
        -0,
        1,
        6.123233995736766e-17,
        0,
        0,
        0,
        0,
        1
      ],
      "name": ""
    },
    {
      "mesh": 6,
      "name": "L1_smdimportmtl_0"
    }
  ],
  "samplers": [
    {
      "magFilter": 9729,
      "minFilter": 9987,
      "wrapS": 10497,
      "wrapT": 10497
    }
  ],
  "scene": 0,
  "scenes": [
    {
      "name": "OSG_Scene",
      "nodes": [
        0
      ]
    }
  ],
  "textures": [
    {
      "sampler": 0,
      "source": 0
    }
  ]
}

