{
  "accessors": [
    {
      "bufferView": 2,
      "componentType": 5126,
      "count": 1152,
      "max": [
        0.3199421763420105,
        0.36852684617042542,
        1.2920600175857544
      ],
      "min": [
        -0.11570731550455093,
        -15.545980453491211,
        0.8564104437828064
      ],
      "type": "VEC3"
    },
    {
      "bufferView": 2,
      "byteOffset": 13824,
      "componentType": 5126,
      "count": 1152,
      "max": [
        1,
        1,
        1
      ],
      "min": [
        -1,
        -1,
        -1
      ],
      "type": "VEC3"
    },
    {
      "bufferView": 1,
      "componentType": 5125,
      "count": 2160,
      "max": [
        1151
      ],
      "min": [
        0
      ],
      "type": "SCALAR"
    },
    {
      "bufferView": 4,
      "componentType": 5126,
      "count": 5,
      "max": [
        1,
        0,
        0,
        0,
        0,
        1,
        0.0023900000378489494,
        0,
        0,
        0,
        1,
        0,
        0.11655999720096588,
        3.5566399097442627,
        0,
        1
      ],
      "min": [
        -1,
        0,
        0,
        0,
        0,
        -1,
        0,
        0,
        0,
        -0.0023900000378489494,
        1,
        0,
        -0.11655999720096588,
        -10.641690254211426,
        -1.0819699764251709,
        1
      ],
      "type": "MAT4"
    },
    {
      "bufferView": 0,
      "componentType": 5123,
      "count": 1152,
      "max": [
        4,
        4,
        4,
        4
      ],
      "min": [
        1,
        1,
        4,
        4
      ],
      "type": "VEC4"
    },
    {
      "bufferView": 3,
      "componentType": 5126,
      "count": 1152,
      "max": [
        1,
        0.091710001230239868,
        0,
        0
      ],
      "min": [
        0.90829002857208252,
        0,
        0,
        0
      ],
      "type": "VEC4"
    }
  ],
  "asset": {
    "extras": {
      "author": "VioletBoom (https://sketchfab.com/violetboom)",
      "license": "CC-BY-4.0 (http://creativecommons.org/licenses/by/4.0/)",
      "source": "https://sketchfab.com/3d-models/chain-05819668ba23400a8a72c55586e14b20",
      "title": "Chain"
    },
    "generator": "Sketchfab-5.29.0",
    "version": "2.0"
  },
  "bufferViews": [
    {
      "buffer": 0,
      "byteLength": 9216,
      "byteOffset": 0,
      "byteStride": 8,
      "name": "shortBufferViews",
      "target": 34962
    },
    {
      "buffer": 0,
      "byteLength": 8640,
      "byteOffset": 9216,
      "name": "floatBufferViews",
      "target": 34963
    },
    {
      "buffer": 0,
      "byteLength": 27648,
      "byteOffset": 17856,
      "byteStride": 12,
      "name": "floatBufferViews",
      "target": 34962
    },
    {
      "buffer": 0,
      "byteLength": 18432,
      "byteOffset": 45504,
      "byteStride": 16,
      "name": "floatBufferViews",
      "target": 34962
    },
    {
      "buffer": 0,
      "byteLength": 320,
      "byteOffset": 63936,
      "byteStride": 64,
      "name": "floatBufferViews"
    }
  ],
  "buffers": [
    {
      "byteLength": 64256,
      "uri": "scene.bin"
    }
  ],
  "materials": [
    {
      "doubleSided": true,
      "emissiveFactor": [
        0,
        0,
        0
      ],
      "name": "Material.001",
      "pbrMetallicRoughness": {
        "baseColorFactor": [
          0.80000001190000003,
          0.80000001190000003,
          0.80000001190000003,
          1
        ],
        "metallicFactor": 0,
        "roughnessFactor": 0.59999999999999998
      }
    }
  ],
  "meshes": [
    {
      "name": "Cube.001",
      "primitives": [
        {
          "attributes": {
            "JOINTS_0": 4,
            "NORMAL": 1,
            "POSITION": 0,
            "WEIGHTS_0": 5
          },
          "indices": 2,
          "material": 0,
          "mode": 4
        }
      ]
    }
  ],
  "nodes": [
    {
      "children": [
        1
      ],
      "name": "RootNode (gltf orientation matrix)",
      "rotation": [
        -0.70710678118654746,
        -0,
        -0,
        0.70710678118654757
      ]
    },
    {
      "children": [
        2
      ],
      "name": "RootNode (model correction matrix)"
    },
    {
      "children": [
        3,
        5
      ],
      "name": "Root"
    },
    {
      "children": [
        4
      ],
      "matrix": [
        -0.29086000000000006,
        0.95517000000000007,
        -0.05519000000000001,
        0,
        -0.77110000000000001,
        -0.19988000000000003,
        0.60452000000000006,
        0,
        0.56639000000000006,
        0.21839000000000003,
        0.7946700000000001,
        0,
        4.0762500000000008,
        1.00545,
        5.9038600000000008,
        1
      ],
      "name": "Lamp"
    },
    {
      "name": "Lamp"
    },
    {
      "children": [
        6,
        12,
        11
      ],
      "matrix": [
        1,
        0,
        0,
        0,
        0,
        1,
        0,
        0,
        0,
        0,
        1,
        0,
        0.70927000000000007,
        10.993259999999999,
        1.1124100000000001,
        1
      ],
      "name": "Armature"
    },
    {
      "children": [
        7,
        8
      ],
      "name": "Armature_rootJoint"
    },
    {
      "name": "Bone_Armature",
      "rotation": [
        -0.0011949974577873945,
        0,
        0,
        0.9999992847442627
      ],
      "scale": [
        1,
        1.0000028610229492,
        1.0000028610229492
      ],
      "translation": [
        0.11655999720096588,
        -3.554069995880127,
        1.0819699764251709
      ]
    },
    {
      "children": [
        9
      ],
      "name": "Bone.001_Armature",
      "rotation": [
        0,
        0,
        1,
        0
      ],
      "scale": [
        1,
        1,
        1
      ],
      "translation": [
        0.11655999720096588,
        -3.554069995880127,
        1.0819699764251709
      ]
    },
    {
      "children": [
        10
      ],
      "name": "Bone.002_Armature",
      "rotation": [
        0,
        0,
        0,
        1
      ],
      "scale": [
        1,
        1,
        1
      ],
      "translation": [
        0,
        3.6254498958587646,
        0
      ]
    },
    {
      "name": "Bone.003_Armature",
      "rotation": [
        0,
        0,
        0,
        1
      ],
      "scale": [
        1,
        1,
        1
      ],
      "translation": [
        0,
        3.462169885635376,
        0
      ]
    },
    {
      "matrix": [
        0.55761000000000005,
        0,
        0,
        0,
        0,
        -0,
        0.55761000000000005,
        0,
        0,
        -0.55761000000000005,
        -0,
        0,
        0.63449000000000011,
        -14.988369999999998,
        0.73445000000000005,
        1
      ],
      "name": "Cube.001"
    },
    {
      "mesh": 0,
      "name": "Cube.001_0",
      "skin": 0
    }
  ],
  "scene": 0,
  "scenes": [
    {
      "name": "OSG_Scene",
      "nodes": [
        0
      ]
    }
  ],
  "skins": [
    {
      "inverseBindMatrices": 3,
      "joints": [
        6,
        7,
        8,
        9,
        10
      ],
      "skeleton": 6
    }
  ]
}

